<svg width="38" height="50" xmlns="http://www.w3.org/2000/svg" xmlns:xlink="http://www.w3.org/1999/xlink"><defs><path id="a" d="M0 .055h37.829V50H0"/><path id="c" d="M0 .055h37.829V50H0z"/></defs><g fill="none" fill-rule="evenodd"><path fill="#FFF" d="M16.42.055L12.4 1.761l3.67 8.636-8.384 3.56-3.67-8.637L0 7.025l8.936 21.033 4.018-1.706-3.823-8.999 8.383-3.558 3.823 8.998 4.018-1.705z"/><mask id="b" fill="#fff"><use xlink:href="#a"/></mask><path d="M37.777 15.065a2.762 2.762 0 1 1-5.421-1.064 2.762 2.762 0 0 1 5.42 1.064" fill="#FFF" mask="url(#b)"/><path fill="#FFF" d="M28.491 36.591l2.357-12.023 4.284.84-2.357 12.022z"/><mask id="d" fill="#fff"><use xlink:href="#c"/></mask><path fill="#FFF" mask="url(#d)" d="M0 41.516L30.877 50l.96-3.494L.961 38.022z"/></g></svg>